<?xml version="1.0" encoding="UTF-8" standalone="no"?>
<!-- Created with Inkscape (http://www.inkscape.org/) -->

<svg
   version="1.1"
   id="svg2"
   width="32"
   height="32"
   viewBox="0 0 31.999997 32.000002"
   sodipodi:docname="icon.svg"
   inkscape:version="1.1.2 (0a00cf5339, 2022-02-04)"
   xmlns:inkscape="http://www.inkscape.org/namespaces/inkscape"
   xmlns:sodipodi="http://sodipodi.sourceforge.net/DTD/sodipodi-0.dtd"
   xmlns="http://www.w3.org/2000/svg"
   xmlns:svg="http://www.w3.org/2000/svg">
  <defs
     id="defs6" />
  <sodipodi:namedview
     id="namedview4"
     pagecolor="#ffffff"
     bordercolor="#666666"
     borderopacity="1.0"
     inkscape:pageshadow="2"
     inkscape:pageopacity="0.0"
     inkscape:pagecheckerboard="0"
     showgrid="false"
     inkscape:zoom="3.825629"
     inkscape:cx="7.7111502"
     inkscape:cy="60.25153"
     inkscape:window-width="1868"
     inkscape:window-height="1016"
     inkscape:window-x="52"
     inkscape:window-y="27"
     inkscape:window-maximized="1"
     inkscape:current-layer="g8"
     units="px"
     width="32px" />
  <g
     inkscape:groupmode="layer"
     inkscape:label="Image"
     id="g8">
    <g
       id="g102"
       transform="matrix(0.38105013,0,0,0.41025641,0.30019488,0.30582625)">
      <path
         style="fill:#fefefe"
         d="M 0.03180337,75.25 C 0.05888954,72.907891 0.25108468,72.722486 1.3275818,74 2.0227681,74.825 3.2234566,76.0625 3.9957785,76.75 5.1619332,77.788079 4.9422515,78 2.7,78 0.41350221,78 0.00487065,77.57884 0.03180337,75.25 Z M 79.213982,76.940058 c 0.94269,-0.549519 2.40519,-1.985963 3.25,-3.192098 C 83.981249,71.581758 84,71.594326 84,74.777494 c 0,2.975219 -0.249397,3.220173 -3.25,3.192097 -2.648511,-0.02478 -2.932787,-0.21532 -1.536018,-1.029533 z M 80.813774,2.881328 78.127549,0 h 2.936225 C 83.659581,0 84,0.34781326 84,3 c 0,1.65 -0.1125,2.9465976 -0.25,2.881328 -0.1375,-0.06527 -1.458801,-1.4152696 -2.936226,-3 z M 0.03180337,2.75 C 0.00487065,0.42115966 0.41350221,0 2.7,0 4.9422515,0 5.1619332,0.21192061 3.9957785,1.25 3.2234566,1.9375 2.0227681,3.175 1.3275818,4 0.25108468,5.2775139 0.05888954,5.0921088 0.03180337,2.75 Z"
         id="path112" />
      <path
         style="fill:#fee889"
         d="M 23.386999,60.234687 C 22.774848,59.830609 21.951136,55.225 21.556526,50 21.161917,44.775 20.208559,36.9 19.437953,32.5 17.612443,22.076718 17.618175,22.002499 20.25,21.985272 c 1.2375,-0.0081 4.95,-0.866803 8.25,-1.90823 7.02573,-2.217206 5.996914,-3.416396 10.014526,11.672958 1.501011,5.6375 3.032771,10.25 3.40391,10.25 0.37114,0 2.441409,-5.426311 4.600599,-12.058468 C 50.072013,19.028223 50.637388,17.945193 52.472417,18.537277 53.587588,18.897094 56.975,19.674241 60,20.26427 c 3.025,0.590029 5.649565,1.184009 5.832366,1.319955 0.182802,0.135946 -0.407972,6.24761 -1.31283,13.581475 C 63.614678,42.499565 62.565113,51.2 62.187169,54.5 c -0.584583,5.104277 -0.985743,6 -2.687169,6 -1.679463,0 -2.295926,-1.282147 -3.846442,-8 -1.015544,-4.4 -2.040109,-8.630747 -2.276813,-9.40166 -0.262739,-0.855708 -2.261258,1.091811 -5.130937,5 -4.521305,6.157524 -6.093718,7.853404 -7.312189,7.886347 -0.311509,0.0084 -2.467304,-2.966392 -4.790655,-6.610698 -2.323351,-3.644306 -4.456357,-6.393929 -4.740014,-6.110272 -0.283656,0.283656 -1.429115,4.390361 -2.545464,9.126011 -1.925043,8.166198 -2.889203,9.548854 -5.470487,7.844959 z"
         id="path110" />
      <path
         style="fill:#67537b"
         d="m 83.442249,39 c 0,-16.225 0.137524,-22.8625 0.305608,-14.75 0.168085,8.1125 0.168085,21.3875 0,29.5 -0.168084,8.1125 -0.305608,1.475 -0.305608,-14.75 z"
         id="path108" />
      <path
         style="fill:#351a50"
         d="m 25.313512,77.251409 c 9.247431,-0.165189 24.097431,-0.164878 33,6.9e-4 C 67.21608,77.417666 59.65,77.55282 41.5,77.552441 23.35,77.552062 16.06608,77.416597 25.313512,77.251409 Z m 0,-77.00000021 c 9.247431,-0.16518837 24.097431,-0.16487798 33,6.8975e-4 C 67.21608,0.41766627 59.65,0.55282039 41.5,0.55244103 23.35,0.55206167 16.06608,0.41659716 25.313512,0.25140879 Z"
         id="path106" />
      <path
         style="fill:#270a44"
         d="m 4.2613695,75.470517 c -1.2010036,-0.841216 -2.6486218,-3.203716 -3.2169293,-5.25 -1.36385471,-4.910783 -1.36385471,-57.530251 0,-62.4410339 C 2.9549071,0.9005338 2.3527576,1 42.086143,1 h 35.64113 L 80.363636,3.6363636 83,6.2727273 V 39 71.727273 L 80.363636,74.363636 77.727273,77 H 42.086143 C 11.718255,77 6.1219341,76.773707 4.2613695,75.470517 Z M 27.878861,60.226351 c 0.522075,-0.975507 1.527942,-4.575507 2.23526,-8 C 30.821438,48.801858 31.727093,46 32.126686,46 c 0.399593,0 2.162844,2.51041 3.918335,5.578689 2.891289,5.053446 3.439571,5.517242 5.823391,4.926061 1.447373,-0.358945 2.762903,-1.0133 2.923399,-1.454123 0.160497,-0.440822 2.009673,-3.103949 4.109281,-5.91806 l 3.817469,-5.116565 1.643663,8.194943 c 0.904014,4.507218 2.059391,8.61067 2.567503,9.118782 0.508113,0.508113 2.006104,0.65221 3.328869,0.320217 2.31646,-0.581394 2.467946,-1.184488 4.113542,-16.376784 C 65.31182,36.597922 66.346028,27.3625 66.670378,24.75 L 67.260105,20 63.380052,19.956107 C 61.246024,19.931966 57.7,19.263741 55.5,18.471164 c -2.2,-0.792578 -4.454837,-1.447827 -5.01075,-1.456108 -0.555912,-0.0083 -2.540881,4.952475 -4.411041,11.023902 -1.870161,6.071427 -3.759728,10.679523 -4.199038,10.240213 -0.439309,-0.439309 -1.989732,-5.294341 -3.445382,-10.788958 -1.455651,-5.494617 -2.78064,-10.134606 -2.94442,-10.311087 -0.163781,-0.17648 -3.426906,0.61102 -7.251389,1.75 C 24.413497,20.068107 20.259224,21 19.006263,21 c -2.14718,0 -2.238758,0.273 -1.5934,4.75 2.472307,17.150975 3.550585,26.347149 3.567614,30.426676 0.01504,3.602783 0.421371,4.78169 1.769523,5.133998 3.316872,0.86679 4.182612,0.683758 5.128861,-1.084323 z"
         id="path104" />
    </g>
  </g>
</svg>
